<svg width="14" height="14" viewBox="0 0 14 14" fill="none" xmlns="http://www.w3.org/2000/svg">
<g clip-path="url(#clip0_85_3029)">
<rect width="14" height="14" fill="white" fill-opacity="0.01"/>
<g clip-path="url(#clip1_85_3029)">
<path d="M6.99976 5.68665C7.11579 5.68665 7.22707 5.73274 7.30912 5.81479C7.39116 5.89683 7.43726 6.00811 7.43726 6.12415V7.43665H8.74976C8.86579 7.43665 8.97707 7.48274 9.05912 7.56479C9.14116 7.64683 9.18726 7.75811 9.18726 7.87415C9.18726 7.99018 9.14116 8.10146 9.05912 8.18351C8.97707 8.26555 8.86579 8.31165 8.74976 8.31165H7.43726V9.62415C7.43726 9.74018 7.39116 9.85146 7.30912 9.93351C7.22707 10.0156 7.11579 10.0616 6.99976 10.0616C6.88372 10.0616 6.77244 10.0156 6.6904 9.93351C6.60835 9.85146 6.56226 9.74018 6.56226 9.62415V8.31165H5.24976C5.13372 8.31165 5.02244 8.26555 4.9404 8.18351C4.85835 8.10146 4.81226 7.99018 4.81226 7.87415C4.81226 7.75811 4.85835 7.64683 4.9404 7.56479C5.02244 7.48274 5.13372 7.43665 5.24976 7.43665H6.56226V6.12415C6.56226 6.00811 6.60835 5.89683 6.6904 5.81479C6.77244 5.73274 6.88372 5.68665 6.99976 5.68665Z" fill="#5C6F88"/>
<path d="M12.2498 3.93665V12.2491C12.2498 12.7133 12.0654 13.1584 11.7372 13.4866C11.409 13.8148 10.9639 13.9991 10.4998 13.9991H3.49976C3.03563 13.9991 2.59051 13.8148 2.26232 13.4866C1.93413 13.1584 1.74976 12.7133 1.74976 12.2491V1.74915C1.74976 1.28502 1.93413 0.839897 2.26232 0.511709C2.59051 0.18352 3.03563 -0.000854492 3.49976 -0.000854492H8.31226L12.2498 3.93665ZM9.62476 3.93665C9.27666 3.93665 8.94282 3.79836 8.69668 3.55222C8.45054 3.30608 8.31226 2.97224 8.31226 2.62415V0.874146H3.49976C3.26769 0.874146 3.04513 0.966333 2.88104 1.13043C2.71694 1.29452 2.62476 1.51708 2.62476 1.74915V12.2491C2.62476 12.4812 2.71694 12.7038 2.88104 12.8679C3.04513 13.032 3.26769 13.1241 3.49976 13.1241H10.4998C10.7318 13.1241 10.9544 13.032 11.1185 12.8679C11.2826 12.7038 11.3748 12.4812 11.3748 12.2491V3.93665H9.62476Z" fill="#5C6F88"/>
</g>
</g>
<defs>
<clipPath id="clip0_85_3029">
<rect width="14" height="14" fill="white"/>
</clipPath>
<clipPath id="clip1_85_3029">
<rect width="14" height="14" fill="white"/>
</clipPath>
</defs>
</svg>
