<svg width="32" height="32" viewBox="0 0 32 32" fill="none" xmlns="http://www.w3.org/2000/svg">
<rect width="32" height="32" rx="16" fill="#FCE0EC"/>
<g clip-path="url(#clip0_55_95951)">
<rect width="16" height="16" transform="translate(8 8)" fill="white" fill-opacity="0.01"/>
<g clip-path="url(#clip1_55_95951)">
<path d="M15.9998 8.99915C16.6628 8.99915 17.2987 9.26254 17.7675 9.73138C18.2364 10.2002 18.4998 10.8361 18.4998 11.4991V11.9991H13.4998V11.4991C13.4998 10.8361 13.7631 10.2002 14.232 9.73138C14.7008 9.26254 15.3367 8.99915 15.9998 8.99915ZM19.4998 11.9991V11.4991C19.4998 10.5709 19.131 9.68065 18.4746 9.02427C17.8183 8.36789 16.928 7.99915 15.9998 7.99915C15.0715 7.99915 14.1813 8.36789 13.5249 9.02427C12.8685 9.68065 12.4998 10.5709 12.4998 11.4991V11.9991H8.99976V21.9991C8.99976 22.5296 9.21047 23.0383 9.58554 23.4134C9.96062 23.7884 10.4693 23.9991 10.9998 23.9991H20.9998C21.5302 23.9991 22.0389 23.7884 22.414 23.4134C22.789 23.0383 22.9998 22.5296 22.9998 21.9991V11.9991H19.4998ZM9.99976 12.9991H21.9998V21.9991C21.9998 22.2644 21.8944 22.5187 21.7069 22.7063C21.5193 22.8938 21.265 22.9991 20.9998 22.9991H10.9998C10.7345 22.9991 10.4802 22.8938 10.2926 22.7063C10.1051 22.5187 9.99976 22.2644 9.99976 21.9991V12.9991Z" fill="#FB407D"/>
</g>
</g>
<defs>
<clipPath id="clip0_55_95951">
<rect width="16" height="16" fill="white" transform="translate(8 8)"/>
</clipPath>
<clipPath id="clip1_55_95951">
<rect width="16" height="16" fill="white" transform="translate(8 8)"/>
</clipPath>
</defs>
</svg>
