<svg width="32" height="32" viewBox="0 0 32 32" fill="none" xmlns="http://www.w3.org/2000/svg">
<rect width="32" height="32" rx="16" fill="#F0E8FC"/>
<g clip-path="url(#clip0_55_95937)">
<rect width="16" height="16" transform="translate(8 8)" fill="white" fill-opacity="0.01"/>
<g clip-path="url(#clip1_55_95937)">
<path d="M21.9998 7.99915H9.99976C9.46932 7.99915 8.96062 8.20986 8.58554 8.58493C8.21047 8.96 7.99976 9.46871 7.99976 9.99915V21.9991C7.99976 22.5296 8.21047 23.0383 8.58554 23.4134C8.96062 23.7884 9.46932 23.9991 9.99976 23.9991H21.9998C22.5302 23.9991 23.0389 23.7884 23.414 23.4134C23.789 23.0383 23.9998 22.5296 23.9998 21.9991V9.99915C23.9998 9.46871 23.789 8.96 23.414 8.58493C23.0389 8.20986 22.5302 7.99915 21.9998 7.99915ZM8.99976 11.8561C8.99976 11.3831 9.44776 10.9991 9.99976 10.9991H21.9998C22.5518 10.9991 22.9998 11.3831 22.9998 11.8561V22.1421C22.9998 22.6151 22.5518 22.9991 21.9998 22.9991H9.99976C9.44776 22.9991 8.99976 22.6151 8.99976 22.1421V11.8561Z" fill="#6E13DF"/>
<path d="M14.4998 14.9991C14.765 14.9991 15.0193 14.8938 15.2069 14.7063C15.3944 14.5187 15.4998 14.2644 15.4998 13.9991C15.4998 13.7339 15.3944 13.4796 15.2069 13.292C15.0193 13.1045 14.765 12.9991 14.4998 12.9991C14.2345 12.9991 13.9802 13.1045 13.7926 13.292C13.6051 13.4796 13.4998 13.7339 13.4998 13.9991C13.4998 14.2644 13.6051 14.5187 13.7926 14.7063C13.9802 14.8938 14.2345 14.9991 14.4998 14.9991ZM17.4998 14.9991C17.765 14.9991 18.0193 14.8938 18.2069 14.7063C18.3944 14.5187 18.4998 14.2644 18.4998 13.9991C18.4998 13.7339 18.3944 13.4796 18.2069 13.292C18.0193 13.1045 17.765 12.9991 17.4998 12.9991C17.2345 12.9991 16.9802 13.1045 16.7926 13.292C16.6051 13.4796 16.4998 13.7339 16.4998 13.9991C16.4998 14.2644 16.6051 14.5187 16.7926 14.7063C16.9802 14.8938 17.2345 14.9991 17.4998 14.9991ZM20.4998 14.9991C20.765 14.9991 21.0193 14.8938 21.2069 14.7063C21.3944 14.5187 21.4998 14.2644 21.4998 13.9991C21.4998 13.7339 21.3944 13.4796 21.2069 13.292C21.0193 13.1045 20.765 12.9991 20.4998 12.9991C20.2345 12.9991 19.9802 13.1045 19.7926 13.292C19.6051 13.4796 19.4998 13.7339 19.4998 13.9991C19.4998 14.2644 19.6051 14.5187 19.7926 14.7063C19.9802 14.8938 20.2345 14.9991 20.4998 14.9991ZM11.4998 17.9991C11.765 17.9991 12.0193 17.8938 12.2069 17.7063C12.3944 17.5187 12.4998 17.2644 12.4998 16.9991C12.4998 16.7339 12.3944 16.4796 12.2069 16.292C12.0193 16.1045 11.765 15.9991 11.4998 15.9991C11.2345 15.9991 10.9802 16.1045 10.7926 16.292C10.6051 16.4796 10.4998 16.7339 10.4998 16.9991C10.4998 17.2644 10.6051 17.5187 10.7926 17.7063C10.9802 17.8938 11.2345 17.9991 11.4998 17.9991ZM14.4998 17.9991C14.765 17.9991 15.0193 17.8938 15.2069 17.7063C15.3944 17.5187 15.4998 17.2644 15.4998 16.9991C15.4998 16.7339 15.3944 16.4796 15.2069 16.292C15.0193 16.1045 14.765 15.9991 14.4998 15.9991C14.2345 15.9991 13.9802 16.1045 13.7926 16.292C13.6051 16.4796 13.4998 16.7339 13.4998 16.9991C13.4998 17.2644 13.6051 17.5187 13.7926 17.7063C13.9802 17.8938 14.2345 17.9991 14.4998 17.9991ZM17.4998 17.9991C17.765 17.9991 18.0193 17.8938 18.2069 17.7063C18.3944 17.5187 18.4998 17.2644 18.4998 16.9991C18.4998 16.7339 18.3944 16.4796 18.2069 16.292C18.0193 16.1045 17.765 15.9991 17.4998 15.9991C17.2345 15.9991 16.9802 16.1045 16.7926 16.292C16.6051 16.4796 16.4998 16.7339 16.4998 16.9991C16.4998 17.2644 16.6051 17.5187 16.7926 17.7063C16.9802 17.8938 17.2345 17.9991 17.4998 17.9991ZM20.4998 17.9991C20.765 17.9991 21.0193 17.8938 21.2069 17.7063C21.3944 17.5187 21.4998 17.2644 21.4998 16.9991C21.4998 16.7339 21.3944 16.4796 21.2069 16.292C21.0193 16.1045 20.765 15.9991 20.4998 15.9991C20.2345 15.9991 19.9802 16.1045 19.7926 16.292C19.6051 16.4796 19.4998 16.7339 19.4998 16.9991C19.4998 17.2644 19.6051 17.5187 19.7926 17.7063C19.9802 17.8938 20.2345 17.9991 20.4998 17.9991ZM11.4998 20.9991C11.765 20.9991 12.0193 20.8938 12.2069 20.7063C12.3944 20.5187 12.4998 20.2644 12.4998 19.9991C12.4998 19.7339 12.3944 19.4796 12.2069 19.292C12.0193 19.1045 11.765 18.9991 11.4998 18.9991C11.2345 18.9991 10.9802 19.1045 10.7926 19.292C10.6051 19.4796 10.4998 19.7339 10.4998 19.9991C10.4998 20.2644 10.6051 20.5187 10.7926 20.7063C10.9802 20.8938 11.2345 20.9991 11.4998 20.9991ZM14.4998 20.9991C14.765 20.9991 15.0193 20.8938 15.2069 20.7063C15.3944 20.5187 15.4998 20.2644 15.4998 19.9991C15.4998 19.7339 15.3944 19.4796 15.2069 19.292C15.0193 19.1045 14.765 18.9991 14.4998 18.9991C14.2345 18.9991 13.9802 19.1045 13.7926 19.292C13.6051 19.4796 13.4998 19.7339 13.4998 19.9991C13.4998 20.2644 13.6051 20.5187 13.7926 20.7063C13.9802 20.8938 14.2345 20.9991 14.4998 20.9991ZM17.4998 20.9991C17.765 20.9991 18.0193 20.8938 18.2069 20.7063C18.3944 20.5187 18.4998 20.2644 18.4998 19.9991C18.4998 19.7339 18.3944 19.4796 18.2069 19.292C18.0193 19.1045 17.765 18.9991 17.4998 18.9991C17.2345 18.9991 16.9802 19.1045 16.7926 19.292C16.6051 19.4796 16.4998 19.7339 16.4998 19.9991C16.4998 20.2644 16.6051 20.5187 16.7926 20.7063C16.9802 20.8938 17.2345 20.9991 17.4998 20.9991Z" fill="#6E13DF"/>
</g>
</g>
<defs>
<clipPath id="clip0_55_95937">
<rect width="16" height="16" fill="white" transform="translate(8 8)"/>
</clipPath>
<clipPath id="clip1_55_95937">
<rect width="16" height="16" fill="white" transform="translate(8 8)"/>
</clipPath>
</defs>
</svg>
