<svg width="32" height="32" viewBox="0 0 32 32" fill="none" xmlns="http://www.w3.org/2000/svg">
<rect width="32" height="32" rx="16" fill="#FCF3EC"/>
<g clip-path="url(#clip0_55_95944)">
<rect width="16" height="16" transform="translate(8 8)" fill="white" fill-opacity="0.01"/>
<path d="M11.9998 18.7801C12.1478 20.4471 13.5128 21.6301 15.5908 21.7831V22.9991H16.6338V21.7831C18.9038 21.6041 20.3118 20.3451 20.3118 18.4831C20.3118 16.8931 19.3648 15.9731 17.3558 15.4551L16.6338 15.2681V11.4661C17.7558 11.5761 18.5128 12.1801 18.7038 13.0821H20.1738C20.0078 11.4821 18.6338 10.3341 16.6338 10.2071V8.99915H15.5908V10.2321C13.6518 10.4621 12.3208 11.7041 12.3208 13.3881C12.3208 14.8421 13.2868 15.8711 14.9818 16.3051L15.5918 16.4671V20.4981C14.4428 20.3281 13.6518 19.6981 13.4608 18.7801H11.9998ZM15.3908 14.9441C14.3478 14.6811 13.7908 14.1191 13.7908 13.3281C13.7908 12.3841 14.4948 11.6871 15.5908 11.5001V14.9951L15.3908 14.9451V14.9441ZM16.9818 16.8161C18.2688 17.1391 18.8338 17.6751 18.8338 18.5851C18.8338 19.6821 18.0078 20.4131 16.6338 20.5241V16.7291L16.9818 16.8151V16.8161Z" fill="#C8895D"/>
</g>
<defs>
<clipPath id="clip0_55_95944">
<rect width="16" height="16" fill="white" transform="translate(8 8)"/>
</clipPath>
</defs>
</svg>
