<svg width="32" height="32" viewBox="0 0 32 32" fill="none" xmlns="http://www.w3.org/2000/svg">
<rect width="32" height="32" rx="16" fill="#E7F8FC"/>
<g clip-path="url(#clip0_55_95930)">
<rect width="16" height="16" transform="translate(8 8)" fill="white" fill-opacity="0.01"/>
<g clip-path="url(#clip1_55_95930)">
<path fill-rule="evenodd" clip-rule="evenodd" d="M7.99976 7.99915H8.99976V22.9991H23.9998V23.9991H7.99976V7.99915ZM22.8168 11.1121C22.8676 11.1538 22.9098 11.205 22.9408 11.2629C22.9718 11.3208 22.9912 11.3843 22.9977 11.4496C23.0042 11.515 22.9977 11.581 22.9787 11.6439C22.9597 11.7068 22.9284 11.7653 22.8868 11.8161L18.3868 17.3161C18.3425 17.3701 18.2875 17.4143 18.2252 17.4457C18.1629 17.4771 18.0947 17.4952 18.025 17.4986C17.9553 17.5021 17.8856 17.491 17.8205 17.4659C17.7553 17.4409 17.6962 17.4024 17.6468 17.3531L15.0598 14.7661L11.4038 19.7931C11.3238 19.8948 11.2075 19.9616 11.0793 19.9793C10.9512 19.9971 10.8211 19.9645 10.7165 19.8883C10.6119 19.8122 10.5409 19.6985 10.5184 19.5711C10.4958 19.4437 10.5236 19.3125 10.5958 19.2051L14.5958 13.7051C14.6382 13.6467 14.6928 13.5981 14.7559 13.5627C14.8189 13.5274 14.8889 13.5061 14.9609 13.5004C15.033 13.4947 15.1054 13.5047 15.1732 13.5297C15.241 13.5547 15.3026 13.5941 15.3538 13.6451L17.9628 16.2551L22.1128 11.1821C22.1544 11.1313 22.2056 11.0891 22.2635 11.0581C22.3214 11.0271 22.3849 11.0077 22.4502 11.0012C22.5156 10.9947 22.5817 11.0012 22.6445 11.0202C22.7074 11.0392 22.7659 11.0705 22.8168 11.1121Z" fill="#04B4FC"/>
</g>
</g>
<defs>
<clipPath id="clip0_55_95930">
<rect width="16" height="16" fill="white" transform="translate(8 8)"/>
</clipPath>
<clipPath id="clip1_55_95930">
<rect width="16" height="16" fill="white" transform="translate(8 8)"/>
</clipPath>
</defs>
</svg>
