<svg width="17" height="16" viewBox="0 0 17 16" fill="none" xmlns="http://www.w3.org/2000/svg">
<g clip-path="url(#clip0_55_95923)">
<path d="M12.0332 10.344C13.0015 9.02267 13.4352 7.38447 13.2475 5.75713C13.0598 4.12979 12.2646 2.63332 11.0209 1.56711C9.7773 0.500899 8.17693 -0.056418 6.54002 0.00665514C4.9031 0.0697283 3.35037 0.748541 2.19245 1.90729C1.03453 3.06603 0.356832 4.61926 0.29493 6.25621C0.233028 7.89317 0.79149 9.49314 1.85859 10.736C2.92569 11.9789 4.42273 12.773 6.0502 12.9596C7.67767 13.1461 9.31556 12.7112 10.6362 11.742H10.6352C10.6652 11.782 10.6972 11.82 10.7332 11.857L14.5832 15.707C14.7707 15.8946 15.0251 16.0001 15.2903 16.0002C15.5556 16.0003 15.81 15.895 15.9977 15.7075C16.1853 15.52 16.2908 15.2656 16.2909 15.0003C16.291 14.7351 16.1857 14.4806 15.9982 14.293L12.1482 10.443C12.1124 10.4068 12.074 10.3734 12.0332 10.343V10.344ZM12.2912 6.49998C12.2912 7.22225 12.1489 7.93745 11.8725 8.60474C11.5961 9.27203 11.191 9.87834 10.6803 10.3891C10.1695 10.8998 9.56323 11.3049 8.89594 11.5813C8.22865 11.8577 7.51345 12 6.79118 12C6.06891 12 5.35371 11.8577 4.68642 11.5813C4.01913 11.3049 3.41282 10.8998 2.90209 10.3891C2.39137 9.87834 1.98624 9.27203 1.70984 8.60474C1.43344 7.93745 1.29118 7.22225 1.29118 6.49998C1.29118 5.04129 1.87064 3.64234 2.90209 2.61089C3.93354 1.57944 5.33249 0.999979 6.79118 0.999979C8.24987 0.999979 9.64882 1.57944 10.6803 2.61089C11.7117 3.64234 12.2912 5.04129 12.2912 6.49998Z" fill="#212529"/>
</g>
<defs>
<clipPath id="clip0_55_95923">
<rect width="16" height="16" fill="white" transform="translate(0.29126)"/>
</clipPath>
</defs>
</svg>
