<svg width="16" height="16" viewBox="0 0 16 16" fill="none" xmlns="http://www.w3.org/2000/svg">
<g clip-path="url(#clip0_93_2834)">
<rect width="16" height="16" fill="white" fill-opacity="0.01"/>
<path d="M9.49976 12.9993C9.49976 13.3971 9.34172 13.7786 9.06042 14.0599C8.77911 14.3412 8.39758 14.4993 7.99976 14.4993C7.60193 14.4993 7.2204 14.3412 6.9391 14.0599C6.65779 13.7786 6.49976 13.3971 6.49976 12.9993C6.49976 12.6014 6.65779 12.2199 6.9391 11.9386C7.2204 11.6573 7.60193 11.4993 7.99976 11.4993C8.39758 11.4993 8.77911 11.6573 9.06042 11.9386C9.34172 12.2199 9.49976 12.6014 9.49976 12.9993ZM9.49976 7.99927C9.49976 8.39709 9.34172 8.77862 9.06042 9.05993C8.77911 9.34123 8.39758 9.49927 7.99976 9.49927C7.60193 9.49927 7.2204 9.34123 6.9391 9.05993C6.65779 8.77862 6.49976 8.39709 6.49976 7.99927C6.49976 7.60144 6.65779 7.21991 6.9391 6.93861C7.2204 6.6573 7.60193 6.49927 7.99976 6.49927C8.39758 6.49927 8.77911 6.6573 9.06042 6.93861C9.34172 7.21991 9.49976 7.60144 9.49976 7.99927ZM9.49976 2.99927C9.49976 3.39709 9.34172 3.77862 9.06042 4.05993C8.77911 4.34123 8.39758 4.49927 7.99976 4.49927C7.60193 4.49927 7.2204 4.34123 6.9391 4.05993C6.65779 3.77862 6.49976 3.39709 6.49976 2.99927C6.49976 2.60144 6.65779 2.21991 6.9391 1.93861C7.2204 1.6573 7.60193 1.49927 7.99976 1.49927C8.39758 1.49927 8.77911 1.6573 9.06042 1.93861C9.34172 2.21991 9.49976 2.60144 9.49976 2.99927Z" fill="#5C6F88"/>
</g>
<defs>
<clipPath id="clip0_93_2834">
<rect width="16" height="16" fill="white"/>
</clipPath>
</defs>
</svg>
